<?xml version="1.0" standalone="no"?><svg xmlns="http://www.w3.org/2000/svg" viewBox="0 0 1440 320"><path fill="#f3f4f5" fill-opacity="1" d="M0,192L0,192L36.9,192L36.9,64L73.8,64L73.8,224L110.8,224L110.8,224L147.7,224L147.7,128L184.6,128L184.6,288L221.5,288L221.5,256L258.5,256L258.5,192L295.4,192L295.4,256L332.3,256L332.3,256L369.2,256L369.2,32L406.2,32L406.2,32L443.1,32L443.1,192L480,192L480,288L516.9,288L516.9,96L553.8,96L553.8,224L590.8,224L590.8,96L627.7,96L627.7,128L664.6,128L664.6,256L701.5,256L701.5,224L738.5,224L738.5,320L775.4,320L775.4,160L812.3,160L812.3,224L849.2,224L849.2,160L886.2,160L886.2,192L923.1,192L923.1,32L960,32L960,32L996.9,32L996.9,64L1033.8,64L1033.8,288L1070.8,288L1070.8,288L1107.7,288L1107.7,160L1144.6,160L1144.6,0L1181.5,0L1181.5,256L1218.5,256L1218.5,0L1255.4,0L1255.4,64L1292.3,64L1292.3,32L1329.2,32L1329.2,224L1366.2,224L1366.2,192L1403.1,192L1403.1,64L1440,64L1440,0L1403.1,0L1403.1,0L1366.2,0L1366.2,0L1329.2,0L1329.2,0L1292.3,0L1292.3,0L1255.4,0L1255.4,0L1218.5,0L1218.5,0L1181.5,0L1181.5,0L1144.6,0L1144.6,0L1107.7,0L1107.7,0L1070.8,0L1070.8,0L1033.8,0L1033.8,0L996.9,0L996.9,0L960,0L960,0L923.1,0L923.1,0L886.2,0L886.2,0L849.2,0L849.2,0L812.3,0L812.3,0L775.4,0L775.4,0L738.5,0L738.5,0L701.5,0L701.5,0L664.6,0L664.6,0L627.7,0L627.7,0L590.8,0L590.8,0L553.8,0L553.8,0L516.9,0L516.9,0L480,0L480,0L443.1,0L443.1,0L406.2,0L406.2,0L369.2,0L369.2,0L332.3,0L332.3,0L295.4,0L295.4,0L258.5,0L258.5,0L221.5,0L221.5,0L184.6,0L184.6,0L147.7,0L147.7,0L110.8,0L110.8,0L73.8,0L73.8,0L36.9,0L36.9,0L0,0L0,0Z"></path></svg>