<svg xmlns="http://www.w3.org/2000/svg" xmlns:xlink="http://www.w3.org/1999/xlink" width="675.439" height="830" viewBox="0 0 675.439 830">
  <defs>
    <filter id="Path_4444" x="318" y="38" width="357.439" height="753" filterUnits="userSpaceOnUse">
      <feOffset dy="3" input="SourceAlpha"/>
      <feGaussianBlur stdDeviation="3" result="blur"/>
      <feFlood flood-opacity="0.161"/>
      <feComposite operator="in" in2="blur"/>
      <feComposite in="SourceGraphic"/>
    </filter>
    <filter id="Rectangle_47" x="406" y="632" width="183" height="65" filterUnits="userSpaceOnUse">
      <feOffset dy="3" input="SourceAlpha"/>
      <feGaussianBlur stdDeviation="3" result="blur-2"/>
      <feFlood flood-opacity="0.161"/>
      <feComposite operator="in" in2="blur-2"/>
      <feComposite in="SourceGraphic"/>
    </filter>
    <filter id="Rectangle_47-2" x="364" y="325" width="264" height="65" filterUnits="userSpaceOnUse">
      <feOffset dy="3" input="SourceAlpha"/>
      <feGaussianBlur stdDeviation="3" result="blur-3"/>
      <feFlood flood-opacity="0.161"/>
      <feComposite operator="in" in2="blur-3"/>
      <feComposite in="SourceGraphic"/>
    </filter>
    <filter id="Rectangle_47-3" x="365" y="453" width="264" height="66" filterUnits="userSpaceOnUse">
      <feOffset dy="3" input="SourceAlpha"/>
      <feGaussianBlur stdDeviation="3" result="blur-4"/>
      <feFlood flood-opacity="0.161"/>
      <feComposite operator="in" in2="blur-4"/>
      <feComposite in="SourceGraphic"/>
    </filter>
    <filter id="Rectangle_47-4" x="365" y="518" width="264" height="65" filterUnits="userSpaceOnUse">
      <feOffset dy="3" input="SourceAlpha"/>
      <feGaussianBlur stdDeviation="3" result="blur-5"/>
      <feFlood flood-opacity="0.161"/>
      <feComposite operator="in" in2="blur-5"/>
      <feComposite in="SourceGraphic"/>
    </filter>
    <filter id="Rectangle_47-5" x="364" y="389" width="264" height="65" filterUnits="userSpaceOnUse">
      <feOffset dy="3" input="SourceAlpha"/>
      <feGaussianBlur stdDeviation="3" result="blur-6"/>
      <feFlood flood-opacity="0.161"/>
      <feComposite operator="in" in2="blur-6"/>
      <feComposite in="SourceGraphic"/>
    </filter>
    <filter id="Path_4444-2" x="0" y="0" width="393" height="830" filterUnits="userSpaceOnUse">
      <feOffset dy="3" input="SourceAlpha"/>
      <feGaussianBlur stdDeviation="3" result="blur-7"/>
      <feFlood flood-opacity="0.459"/>
      <feComposite operator="in" in2="blur-7"/>
      <feComposite in="SourceGraphic"/>
    </filter>
    <filter id="Rectangle_47-6" x="52" y="369" width="290" height="70" filterUnits="userSpaceOnUse">
      <feOffset dy="3" input="SourceAlpha"/>
      <feGaussianBlur stdDeviation="3" result="blur-8"/>
      <feFlood flood-opacity="0.161"/>
      <feComposite operator="in" in2="blur-8"/>
      <feComposite in="SourceGraphic"/>
    </filter>
    <filter id="Rectangle_47-7" x="52" y="441" width="290" height="70" filterUnits="userSpaceOnUse">
      <feOffset dy="3" input="SourceAlpha"/>
      <feGaussianBlur stdDeviation="3" result="blur-9"/>
      <feFlood flood-opacity="0.161"/>
      <feComposite operator="in" in2="blur-9"/>
      <feComposite in="SourceGraphic"/>
    </filter>
    <filter id="Rectangle_47-8" x="97" y="568" width="200" height="70" filterUnits="userSpaceOnUse">
      <feOffset dy="3" input="SourceAlpha"/>
      <feGaussianBlur stdDeviation="3" result="blur-10"/>
      <feFlood flood-opacity="0.161"/>
      <feComposite operator="in" in2="blur-10"/>
      <feComposite in="SourceGraphic"/>
    </filter>
  </defs>
  <g id="Group_1513" data-name="Group 1513" transform="translate(-6365 -1244)">
    <g id="Group_1512" data-name="Group 1512" transform="translate(-192 59)">
      <g transform="matrix(1, 0, 0, 1, 6557, 1185)" filter="url(#Path_4444)">
        <path id="Path_4444-3" data-name="Path 4444" d="M22.629,0H316.81A22.629,22.629,0,0,1,339.44,22.629V712.371A22.629,22.629,0,0,1,316.81,735H22.629A22.629,22.629,0,0,1,0,712.371V22.629A22.629,22.629,0,0,1,22.629,0Z" transform="translate(327 44)" fill="#fff"/>
      </g>
      <text id="Register" transform="translate(6996 1498)" font-size="31" font-family="Roboto-Regular, Roboto"><tspan x="0" y="0">Register</tspan></text>
      <g id="Group_1502" data-name="Group 1502" transform="translate(6913.871 1304.129)">
        <g id="Group_1500" data-name="Group 1500" transform="translate(102.989 0)">
          <path id="Path_9" data-name="Path 9" d="M132.638,60.089c3.386-11.225,8.712-13.76,20.7-18.514,8.136-2.966,19.767-5.946,24.85-13.455,2.651-3.918,3.186-8.353,2.517-12.858A35.383,35.383,0,0,0,163.807,11c-6.63,0-13.977.822-19.73,4.49a35.069,35.069,0,0,0-5.631,4.707c-6.637,6.565-9.146,15.842-9.146,24.387,0,4.313.1,9.074,1.651,13.249.322.862,1.3,1.416,1.687,2.263" transform="translate(-126.588 -7.032)" fill="#575757" fill-rule="evenodd"/>
          <path id="Path_10" data-name="Path 10" d="M130.386,55.244c-9.686-34.551,26.654-51.03,44.038-44.4-6.337,14.962-30.8,11.967-35.011,24.937,6.644-11.109,29.793-7.282,37.136-22.605,5.826,26.907-39.577,17.174-46.163,42.064" transform="translate(-126.25 -6.014)" fill="#00fddc" fill-rule="evenodd"/>
          <path id="Path_11" data-name="Path 11" d="M225.88,60.2c-2.535-9.241-6.945-13.9-20.719-18.63-8.136-2.966-19.767-5.953-24.85-13.455-2.665-3.94-3.194-8.4-2.509-12.93A35.456,35.456,0,0,1,194.574,11c8.965,0,18.688,2.448,25.484,9.165,6.637,6.565,9.02,15.874,9.02,24.419.572,5.547,2.372,13.035-3.2,15.628" transform="translate(-157.354 -7.032)" fill="#575757" fill-rule="evenodd"/>
          <path id="Path_12" data-name="Path 12" d="M234.061,55.25c9.69-34.547-26.65-51.026-44.034-44.393C196.364,25.819,221,15.032,224.9,31.6c-2.962-12.6-29.655-3.089-37-18.412-5.83,26.9,39.577,17.17,46.16,42.061" transform="translate(-163.641 -6.02)" fill="#00fddc" fill-rule="evenodd"/>
          <path id="Path_13" data-name="Path 13" d="M205.47,41.812A55.761,55.761,0,0,1,194.9,37.1a21.862,21.862,0,0,1-2.393-1.691,12.989,12.989,0,0,1-5.019-8.773,13.449,13.449,0,0,0,2.307,9.776,14.121,14.121,0,0,0,1.532,1.771,29.4,29.4,0,0,0,9.588,5.717c1.524.623,3.114,1.213,4.74,1.792,11.319,4.03,24.387,7.64,28.138,19.589a36.746,36.746,0,0,0,1.535-9.023,43.947,43.947,0,0,1-1.271,6.1C231.1,51.165,220.279,46.975,209.8,43.3c-1.448-.511-2.9-1.01-4.345-1.521" transform="translate(-163.637 -17.009)" fill="#00fddc" fill-rule="evenodd"/>
          <path id="Path_14" data-name="Path 14" d="M218.582,16.025c.362.148.724.308,1.086.467a39.863,39.863,0,0,1,3.737,1.908c8.39,4.834,15.4,12.825,17.21,23.677a32.544,32.544,0,0,0-5.105-14.813,36.959,36.959,0,0,0-12.282-11.113,42.45,42.45,0,0,0-5.6-2.658c-.282-.094-.565-.185-.851-.272a35.746,35.746,0,0,0-20.929-.033c.156.311.319.612.489.905,5.431-1.763,12.518-1.427,19.426.873q1.416.471,2.821,1.057" transform="translate(-169.04 -7.44)" fill="#9fe" fill-rule="evenodd"/>
          <path id="Path_15" data-name="Path 15" d="M129.49,51c1.448-11.547,8.69-20,17.42-25.035.033-.616.091-1.238.17-1.861a35.673,35.673,0,0,0-14.665,15.208A32.826,32.826,0,0,0,129.49,51" transform="translate(-126.709 -15.388)" fill="#9fe" fill-rule="evenodd"/>
          <path id="Path_16" data-name="Path 16" d="M153.029,67.153c-9.831,3.538-19.51,7.883-22.287,18.362a44.135,44.135,0,0,1-1.412-7.3,36.818,36.818,0,0,0,1.619,9.856c3.668-12.108,16.819-15.737,28.2-19.788a36.934,36.934,0,0,1-3.585-2.02A22.116,22.116,0,0,1,150.574,62q-.891.315-1.742.652l.333.5a18.629,18.629,0,0,0,3.86,4.008" transform="translate(-126.607 -39.565)" fill="#00fddc" fill-rule="evenodd"/>
          <path id="Path_17" data-name="Path 17" d="M177.824,40.179c.467-.232.949-.46,1.448-.681a16.858,16.858,0,0,1-2.585-10.258l-.293.174a18.08,18.08,0,0,0,1.448,10.765" transform="translate(-156.479 -18.667)" fill="#00fddc" fill-rule="evenodd"/>
          <path id="Path_18" data-name="Path 18" d="M194.268,37.26h-1.992a33.251,33.251,0,1,1-9.737-23.511,33.251,33.251,0,0,1,9.737,23.511h3.983a37.223,37.223,0,1,0-10.9,26.328,37.221,37.221,0,0,0,10.9-26.328Z" transform="translate(-121.809 -0.041)" fill="#575757"/>
          <path id="Path_19" data-name="Path 19" d="M165.219,157.5a9.284,9.284,0,0,1,1.879-1.944,10.425,10.425,0,0,1,7.579-1.977,14.208,14.208,0,0,1,7.814,3.516,19.085,19.085,0,0,1,3.936,4.794l.043.072h0a8.453,8.453,0,0,0,2.828,3.161,2.846,2.846,0,0,0,1.81.228c2.766-.55,4.979-3.889,4.852-7.108l.514.572a9.776,9.776,0,0,1-1.383,14.259c-3.787,2.926-9.537,3.581-14.165,3.168-4.87-.434-10.417-2.173-13.962-5.67a12.992,12.992,0,0,1-1.2-1.325c-.192-.246-.362-.5-.543-.764-.174.261-.362.518-.547.764a12.579,12.579,0,0,1-1.188,1.336c-3.545,3.483-9.092,5.236-13.962,5.67-4.628.413-10.378-.243-14.161-3.168a9.777,9.777,0,0,1-1.387-14.259l.514-.572c-.268,3.545,3.2,8.462,6.652,6.88a8.323,8.323,0,0,0,2.824-3.161h0l.043-.072a19.165,19.165,0,0,1,3.936-4.794,14.223,14.223,0,0,1,7.814-3.516,10.425,10.425,0,0,1,7.579,1.977,9.414,9.414,0,0,1,1.883,1.944" transform="translate(-128 -97.926)" fill="#575757"/>
          <path id="Path_20" data-name="Path 20" d="M242.674,165.719a10.783,10.783,0,0,0-5.927-2.687,6.967,6.967,0,0,0-5.069,1.271,5.772,5.772,0,0,0-1.51,1.745q-.1.181-.185.362c9.592-1.206,13.072,8.69,18.4,9.643-7.325.091-10.754-9.487-18.927-7.81a6.8,6.8,0,0,0,1.514,4.874,9.78,9.78,0,0,0,.873.981c3.505,3.443,9.414,4.754,14.324,4.79h0c3.241-.029,6.822-.684,9.248-2.56a7.043,7.043,0,0,0,.724-.652,6.956,6.956,0,0,0,1.709-2.788l.083-.279-.083.094a5.565,5.565,0,0,1-.974.847,6.211,6.211,0,0,1-6.742.645c-3.241-1.716-4.628-6.025-7.463-8.484" transform="translate(-190.464 -103.971)" fill="#00fddc" fill-rule="evenodd"/>
          <path id="Path_21" data-name="Path 21" d="M153.093,169.64a15.7,15.7,0,0,1,3.2-3.921,10.761,10.761,0,0,1,5.924-2.687,6.963,6.963,0,0,1,5.069,1.271,5.772,5.772,0,0,1,1.51,1.745c.069.119.13.239.188.362-9.6-1.206-13.075,8.69-18.4,9.643,7.322.091,10.751-9.487,18.923-7.81a6.793,6.793,0,0,1-1.5,4.874,9.793,9.793,0,0,1-.876.981c-3.505,3.443-9.414,4.754-14.324,4.79h0c-3.241-.029-6.822-.684-9.248-2.56a7.428,7.428,0,0,1-.724-.652,7,7,0,0,1-1.709-2.788l-.083-.279.087.094a5.544,5.544,0,0,0,.97.847,6.212,6.212,0,0,0,6.742.645,11.722,11.722,0,0,0,4.262-4.562" transform="translate(-134.083 -103.971)" fill="#00fddc" fill-rule="evenodd"/>
          <path id="Path_22" data-name="Path 22" d="M156.435,186.091c-.884.087-1.756.13-2.6.138h-.793a18.576,18.576,0,0,1-5.717-1.068,6.88,6.88,0,0,1-4.215-1.358l-.46-.409a7.061,7.061,0,0,0,1.195,1.59c2.321,2.361,6.59,3.226,9.99,3.212.3,0,.6,0,.909-.018a29.469,29.469,0,0,0,3.23-.308q.543-.081,1.086-.185a17.768,17.768,0,0,0,9.114-4.28,7.219,7.219,0,0,0,2.383-5.866l-.1-.018a7.966,7.966,0,0,1-2.281,3.929c-2.654,2.607-6.673,3.983-10.609,4.526-.362.051-.746.094-1.115.13" transform="translate(-135.104 -113.256)" fill="#00fddc" fill-rule="evenodd"/>
          <path id="Path_23" data-name="Path 23" d="M231.854,183.338a17.782,17.782,0,0,0,9.114,4.28q.543.1,1.086.185a29.459,29.459,0,0,0,3.233.308c.3,0,.6.018.905.018,3.4,0,7.669-.851,9.99-3.212a6.955,6.955,0,0,0,1.195-1.59l-.46.409a6.88,6.88,0,0,1-4.215,1.358,18.553,18.553,0,0,1-5.714,1.068h-.8c-.844,0-1.713-.051-2.6-.138q-.561-.054-1.119-.13c-3.932-.536-7.966-1.919-10.609-4.526a7.966,7.966,0,0,1-2.281-3.929l-.1.018a7.214,7.214,0,0,0,2.383,5.866" transform="translate(-190.474 -113.205)" fill="#00fddc" fill-rule="evenodd"/>
          <path id="Path_24" data-name="Path 24" d="M242.785,183.012c-3.983-2.661-7.372-6.945-13.035-5.844.04.181.087.362.141.54,5.4-.97,8.716,2.987,12.528,5.634A8.522,8.522,0,0,0,248.575,185a8.52,8.52,0,0,1-3.523-.724c-.293-.123-.583-.264-.869-.413a15.658,15.658,0,0,1-1.412-.847" transform="translate(-190.666 -112.919)" fill="#00fddc" fill-rule="evenodd"/>
          <path id="Path_25" data-name="Path 25" d="M184.872,170.857c-5.96-.308-9.462,3.773-12.673,6.764-1.372,1.39-3.237,2.745-4.769,2.966,1.615-.561,3.045-2.111,4.37-3.353,3.737-3.382,7.694-7.894,13.325-7.054l.362.163c.051.08.1.159.145.243s.13.239.188.362c-.326-.043-.645-.069-.956-.083Z" transform="translate(-150.911 -108.509)" fill="#00fddc" fill-rule="evenodd"/>
          <path id="Path_26" data-name="Path 26" d="M173.24,183.012c3.983-2.661,7.376-6.945,13.035-5.844-.04.181-.087.362-.141.54-5.4-.97-8.716,2.987-12.528,5.634A8.517,8.517,0,0,1,167.45,185a8.513,8.513,0,0,0,3.52-.724c.3-.123.587-.264.873-.413a15.614,15.614,0,0,0,1.409-.847" transform="translate(-150.924 -112.919)" fill="#00fddc" fill-rule="evenodd"/>
          <path id="Path_27" data-name="Path 27" d="M162.19,164c4.595-.514,6.688,2.249,6.778,2.43a6.415,6.415,0,0,0-6.778-3.375c-4.026.449-7.151,3.219-9.128,6.608a18.875,18.875,0,0,1-1.17,1.767c-.188.25-.384.5-.59.724a9.5,9.5,0,0,1-1.97,1.753c-.174.109-.362.214-.532.311a6.2,6.2,0,0,1-6.742-.645L141,172.635a7.5,7.5,0,0,0,.6,1.477l.46.409a6.212,6.212,0,0,0,6.742.645,7.211,7.211,0,0,0,1.043-.674,10.735,10.735,0,0,0,1.861-1.876c.2-.25.384-.507.565-.764.217-.319.427-.641.623-.967h0l.167-.282c1.977-3.393,5.1-6.156,9.128-6.612" transform="translate(-134.051 -103.997)" fill="#00fddc" fill-rule="evenodd"/>
          <path id="Path_28" data-name="Path 28" d="M231.935,170.857c5.956-.308,9.458,3.773,12.673,6.764,1.372,1.39,3.237,2.745,4.772,2.966-1.619-.561-3.049-2.111-4.37-3.353-3.737-3.382-7.7-7.894-13.329-7.054l-.362.163c-.051.08-.1.159-.145.243s-.127.239-.185.362c.326-.043.641-.069.956-.083Z" transform="translate(-191.457 -108.509)" fill="#00fddc" fill-rule="evenodd"/>
          <path id="Path_29" data-name="Path 29" d="M237.76,164c-4.588-.514-6.688,2.259-6.76,2.43a6.41,6.41,0,0,1,6.775-3.375c4.026.449,7.151,3.219,9.132,6.608a18.143,18.143,0,0,0,1.166,1.767c.188.25.387.5.59.724a9.6,9.6,0,0,0,1.97,1.753c.174.109.362.214.532.311a6.2,6.2,0,0,0,6.742-.645l1.057-.941a7.5,7.5,0,0,1-.6,1.477l-.46.409a6.211,6.211,0,0,1-6.742.645,7.211,7.211,0,0,1-1.043-.674,10.6,10.6,0,0,1-1.858-1.876c-.2-.25-.387-.507-.565-.764-.221-.319-.427-.641-.623-.967h0l-.163-.282c-1.981-3.393-5.105-6.156-9.132-6.612" transform="translate(-191.463 -103.997)" fill="#00fddc" fill-rule="evenodd"/>
          <path id="Path_30" data-name="Path 30" d="M221.766,118.944a3.708,3.708,0,1,1-3.7-3.7,3.708,3.708,0,0,1,3.7,3.7Z" transform="translate(-180.842 -73.527)" fill="#575757"/>
          <path id="Path_31" data-name="Path 31" d="M223.374,109.083l10.5-8.69a1.086,1.086,0,1,0-1.387-1.673l-10.5,8.69a1.086,1.086,0,1,0,1.387,1.673" transform="translate(-185.463 -62.829)" fill="#575757"/>
          <path id="Path_32" data-name="Path 32" d="M221.6,98.3v9.146a1.086,1.086,0,0,0,2.173,0V98.3a1.086,1.086,0,0,0-2.173,0" transform="translate(-185.467 -62.026)" fill="#575757"/>
        </g>
        <g id="Group_1493" data-name="Group 1493" transform="translate(0 85.627)">
          <path id="Path_1" data-name="Path 1" d="M3.854,241.594a3.919,3.919,0,0,1-2.75-1.011A3.407,3.407,0,0,1,0,237.9,3.331,3.331,0,0,1,1.1,235.279a4.014,4.014,0,0,1,2.75-.98H31.921a3.951,3.951,0,0,1,2.75,1.011,3.426,3.426,0,0,1,1.106,2.655,3.312,3.312,0,0,1-1.106,2.623,3.982,3.982,0,0,1-2.75.98Zm13.97,36.98a3.989,3.989,0,0,1-2.908-1.106,3.667,3.667,0,0,1-1.138-2.75V238.054H22v36.664a3.628,3.628,0,0,1-1.138,2.75,4.185,4.185,0,0,1-3.034,1.106Z" transform="translate(0.006 -233.11)" fill="#00fddc"/>
          <path id="Path_2" data-name="Path 2" d="M69.019,239.955a4.984,4.984,0,0,1-3.034-.7,2.954,2.954,0,0,1-.885-2.465v-1.2a2.8,2.8,0,0,1,.98-2.5,5.4,5.4,0,0,1,3-.664,5.136,5.136,0,0,1,3.1.7,3,3,0,0,1,.885,2.465v1.2a2.849,2.849,0,0,1-.948,2.5A5.55,5.55,0,0,1,69.019,239.955Zm3.856,34.072a3.793,3.793,0,0,1-1.075,2.75,3.894,3.894,0,0,1-5.436,0,3.793,3.793,0,0,1-1.075-2.75V247.919a3.793,3.793,0,0,1,1.075-2.75,3.894,3.894,0,0,1,5.436,0,3.793,3.793,0,0,1,1.075,2.75Z" transform="translate(-23.944 -232.419)" fill="#00fddc"/>
          <path id="Path_3" data-name="Path 3" d="M107.5,249.839q5.057,0,7.459,2.434a12.042,12.042,0,0,1,3.161,6.29l-1.075-.569.506-1.011a14.539,14.539,0,0,1,2.339-3.129,14.337,14.337,0,0,1,3.793-2.845,10.708,10.708,0,0,1,5.057-1.169q4.551,0,6.922,1.96a9.988,9.988,0,0,1,3.255,5.215,27.687,27.687,0,0,1,.885,7.238v16.183a3.793,3.793,0,0,1-1.075,2.75,3.894,3.894,0,0,1-5.436,0,3.793,3.793,0,0,1-1.075-2.75V264.252a13.078,13.078,0,0,0-.506-3.761,5.2,5.2,0,0,0-1.833-2.687,6.182,6.182,0,0,0-3.793-1.011,7.952,7.952,0,0,0-4.109,1.011,6.574,6.574,0,0,0-2.529,2.687,8.173,8.173,0,0,0-.853,3.761v16.183a3.793,3.793,0,0,1-1.075,2.75,3.894,3.894,0,0,1-5.436,0,3.793,3.793,0,0,1-1.075-2.75V264.252a13.079,13.079,0,0,0-.506-3.761,5.2,5.2,0,0,0-1.833-2.687,6.182,6.182,0,0,0-3.793-1.011,7.952,7.952,0,0,0-4.109,1.011,6.574,6.574,0,0,0-2.529,2.687,8.174,8.174,0,0,0-.853,3.761v16.183a3.793,3.793,0,0,1-1.075,2.75,3.894,3.894,0,0,1-5.436,0,3.793,3.793,0,0,1-1.075-2.75V254.327a3.793,3.793,0,0,1,1.075-2.75,3.894,3.894,0,0,1,5.436,0,3.793,3.793,0,0,1,1.075,2.75v2.718l-.948-.19a14.11,14.11,0,0,1,1.58-2.307,13.555,13.555,0,0,1,2.465-2.307,13.169,13.169,0,0,1,3.224-1.738A10.879,10.879,0,0,1,107.5,249.839Z" transform="translate(-33.029 -238.826)" fill="#00fddc"/>
          <path id="Path_4" data-name="Path 4" d="M196.405,284.927a18.528,18.528,0,0,1-9.324-2.244,15.43,15.43,0,0,1-6.069-6.1,17.75,17.75,0,0,1-2.118-8.723,19.135,19.135,0,0,1,2.307-9.7A16.3,16.3,0,0,1,187.239,252a15.62,15.62,0,0,1,7.9-2.149,14.4,14.4,0,0,1,6.1,1.327,16.79,16.79,0,0,1,5.089,3.635,17.8,17.8,0,0,1,3.508,5.342,16.316,16.316,0,0,1,1.3,6.448,3.256,3.256,0,0,1-1.2,2.465,4.02,4.02,0,0,1-2.655.948H183.13l-1.9-6.321h23.2l-1.391,1.264V263.22a5.829,5.829,0,0,0-1.264-3.287,8.546,8.546,0,0,0-2.908-2.307,8.306,8.306,0,0,0-3.7-.853,12.009,12.009,0,0,0-3.54.506,6.814,6.814,0,0,0-2.845,1.707,8.262,8.262,0,0,0-1.9,3.224,15.9,15.9,0,0,0-.7,5.12,11.05,11.05,0,0,0,1.422,5.784,9.722,9.722,0,0,0,8.407,4.861,14.73,14.73,0,0,0,3.73-.379,8.368,8.368,0,0,0,2.244-.917c.569-.354,1.081-.664,1.549-.917a4.817,4.817,0,0,1,2.149-.569,3.161,3.161,0,0,1,3.224,3.161,3.951,3.951,0,0,1-1.77,3.1,14.691,14.691,0,0,1-4.615,2.434A18.41,18.41,0,0,1,196.405,284.927Z" transform="translate(-65.802 -238.831)" fill="#00fddc"/>
          <path id="Path_5" data-name="Path 5" d="M261.112,278.857a23.908,23.908,0,0,1-9.04-1.675A21.272,21.272,0,0,1,240.125,265.2a25.57,25.57,0,0,1,0-18.206,21.271,21.271,0,0,1,11.947-11.973,24.022,24.022,0,0,1,9.071-1.675,26.1,26.1,0,0,1,6.7.853,18.807,18.807,0,0,1,5.753,2.56,1.094,1.094,0,0,1,.442.474,1.5,1.5,0,0,1,.126.6,1.093,1.093,0,0,1-.442.948,1.372,1.372,0,0,1-.759.316.974.974,0,0,1-.443-.095,3.213,3.213,0,0,0-.379-.158,24.458,24.458,0,0,0-5.12-2.149,20.859,20.859,0,0,0-5.879-.822,20.367,20.367,0,0,0-10.4,2.623,18.825,18.825,0,0,0-7.08,7.175,22.593,22.593,0,0,0,0,20.861,18.478,18.478,0,0,0,7.08,7.175,20.476,20.476,0,0,0,10.4,2.592,20.229,20.229,0,0,0,6.227-.98,20.952,20.952,0,0,0,5.4-2.56l-.253,1.138V258.1l.885.822h-12.3a1.3,1.3,0,0,1-1.264-1.264,1.188,1.188,0,0,1,.379-.917,1.264,1.264,0,0,1,.885-.348h12.643a1.188,1.188,0,0,1,.917.379,1.264,1.264,0,0,1,.348.885v15.867a1.58,1.58,0,0,1-.126.569,1.4,1.4,0,0,1-.442.569,24.88,24.88,0,0,1-6.227,3.034,22.567,22.567,0,0,1-7.112,1.163Z" transform="translate(-87.713 -232.76)" fill="#00fddc"/>
          <path id="Path_6" data-name="Path 6" d="M334.932,254.439a1.188,1.188,0,0,1,.917.379,1.264,1.264,0,0,1,.348.885v18.4q0,6.132-3.445,9.2a15.046,15.046,0,0,1-18.206,0q-3.439-3.066-3.445-9.2V255.7a1.3,1.3,0,0,1,1.264-1.264,1.188,1.188,0,0,1,.917.379,1.264,1.264,0,0,1,.348.885v18.4q0,4.8,2.687,7.333a10.223,10.223,0,0,0,7.3,2.529,10.329,10.329,0,0,0,7.364-2.529q2.693-2.529,2.687-7.333V255.7a1.264,1.264,0,0,1,.348-.885A1.176,1.176,0,0,1,334.932,254.439Z" transform="translate(-114.438 -240.519)" fill="#00fddc"/>
          <path id="Path_7" data-name="Path 7" d="M368.654,285.379a1.188,1.188,0,0,1-.917-.379,1.264,1.264,0,0,1-.348-.885V255.1a1.3,1.3,0,0,1,1.264-1.264,1.176,1.176,0,0,1,.917.379,1.264,1.264,0,0,1,.348.885v10.683l-1.075,1.644a15.558,15.558,0,0,1,.828-5.019,16.719,16.719,0,0,1,2.5-4.709,13.275,13.275,0,0,1,4.014-3.54,10.828,10.828,0,0,1,5.468-1.359,8,8,0,0,1,1.9.253,1.163,1.163,0,0,1,1.011,1.2,1.41,1.41,0,0,1-.316.948,1.011,1.011,0,0,1-.822.379,2.054,2.054,0,0,1-.917-.284,3.363,3.363,0,0,0-1.549-.284,7.586,7.586,0,0,0-3.982,1.2A14.18,14.18,0,0,0,373.4,259.4a17.07,17.07,0,0,0-2.56,4.33,12.092,12.092,0,0,0-.948,4.551v15.8a1.3,1.3,0,0,1-1.264,1.264Z" transform="translate(-135.145 -239.915)" fill="#00fddc"/>
          <path id="Path_8" data-name="Path 8" d="M428.025,254.439a1.176,1.176,0,0,1,.917.379,1.265,1.265,0,0,1,.348.885v18.4q0,6.132-3.445,9.2a15.037,15.037,0,0,1-18.2,0q-3.451-3.066-3.445-9.2V255.7a1.3,1.3,0,0,1,1.264-1.264,1.176,1.176,0,0,1,.917.379,1.264,1.264,0,0,1,.348.885v18.4q0,4.8,2.687,7.333a11.9,11.9,0,0,0,14.666,0q2.68-2.529,2.687-7.333V255.7a1.264,1.264,0,0,1,.348-.885A1.188,1.188,0,0,1,428.025,254.439Z" transform="translate(-148.686 -240.519)" fill="#00fddc"/>
        </g>
      </g>
      <path id="iconfinder_menu-alt_134216" d="M5.491,12.983h41.9a3.491,3.491,0,0,0,0-6.983H5.491a3.491,3.491,0,0,0,0,6.983Zm41.9,6.983H5.491a3.491,3.491,0,0,0,0,6.983h41.9a3.491,3.491,0,0,0,0-6.983Zm0,13.966H5.491a3.491,3.491,0,1,0,0,6.983h41.9a3.491,3.491,0,1,0,0-6.983Z" transform="translate(7153.552 1236.578)" fill="#575757"/>
      <g id="Group_1504" data-name="Group 1504" transform="translate(6971.802 1822.793)">
        <g transform="matrix(1, 0, 0, 1, -414.8, -637.79)" filter="url(#Rectangle_47)">
          <g id="Rectangle_47-9" data-name="Rectangle 47" transform="translate(415 638)" fill="#575757" stroke="rgba(112,112,112,0.15)" stroke-width="1">
            <rect width="165" height="47" rx="10" stroke="none"/>
            <rect x="0.5" y="0.5" width="164" height="46" rx="9.5" fill="none"/>
          </g>
        </g>
        <text id="Register-2" data-name="Register" transform="translate(41.198 32.207)" fill="#fff" font-size="22" font-family="Roboto-Regular, Roboto"><tspan x="0" y="0">Register</tspan></text>
      </g>
      <text id="_Copyright_2021_Lovast_LLC." data-name="© Copyright 2021 — Lovast, LLC." transform="translate(6936 1950)" fill="#575757" font-size="16" font-family="Roboto-Regular, Roboto"><tspan x="0" y="0">© Copyright 2021 — Lovast, LLC.</tspan></text>
      <g id="Group_1510" data-name="Group 1510" transform="translate(6930.164 1515.94)">
        <g id="Group_1499" data-name="Group 1499" transform="translate(0)">
          <g transform="matrix(1, 0, 0, 1, -373.16, -330.94)" filter="url(#Rectangle_47-2)">
            <g id="Rectangle_47-10" data-name="Rectangle 47" transform="translate(373 331)" fill="#fefbfb" stroke="rgba(112,112,112,0.15)" stroke-width="1">
              <rect width="246" height="47" rx="10" stroke="none"/>
              <rect x="0.5" y="0.5" width="245" height="46" rx="9.5" fill="none"/>
            </g>
          </g>
          <text id="Username" transform="translate(7.836 32.06)" fill="rgba(0,0,0,0.26)" font-size="22" font-family="Roboto-Regular, Roboto"><tspan x="0" y="0">Username</tspan></text>
        </g>
        <g id="Group_1503" data-name="Group 1503" transform="translate(0.905 128.534)">
          <g transform="matrix(1, 0, 0, 1, -374.07, -459.47)" filter="url(#Rectangle_47-3)">
            <g id="Rectangle_47-11" data-name="Rectangle 47" transform="translate(374 459)" fill="#fefbfb" stroke="rgba(112,112,112,0.15)" stroke-width="1">
              <rect width="246" height="48" rx="10" stroke="none"/>
              <rect x="0.5" y="0.5" width="245" height="47" rx="9.5" fill="none"/>
            </g>
          </g>
          <text id="Password" transform="translate(7.931 32.526)" fill="rgba(0,0,0,0.26)" font-size="22" font-family="Roboto-Regular, Roboto"><tspan x="0" y="0">Password</tspan></text>
        </g>
        <g id="Group_1508" data-name="Group 1508" transform="translate(0.905 192.802)">
          <g transform="matrix(1, 0, 0, 1, -374.07, -523.74)" filter="url(#Rectangle_47-4)">
            <g id="Rectangle_47-12" data-name="Rectangle 47" transform="translate(374 524)" fill="#fefbfb" stroke="rgba(112,112,112,0.15)" stroke-width="1">
              <rect width="246" height="47" rx="10" stroke="none"/>
              <rect x="0.5" y="0.5" width="245" height="46" rx="9.5" fill="none"/>
            </g>
          </g>
          <text id="Re-Type_Password" data-name="Re-Type Password" transform="translate(7.931 32.259)" fill="rgba(0,0,0,0.26)" font-size="22" font-family="Roboto-Regular, Roboto"><tspan x="0" y="0">Re-Type Password</tspan></text>
        </g>
        <g id="Group_1509" data-name="Group 1509" transform="translate(0 64.267)">
          <g transform="matrix(1, 0, 0, 1, -373.16, -395.21)" filter="url(#Rectangle_47-5)">
            <g id="Rectangle_47-13" data-name="Rectangle 47" transform="translate(373 395)" fill="#fefbfb" stroke="rgba(112,112,112,0.15)" stroke-width="1">
              <rect width="246" height="47" rx="10" stroke="none"/>
              <rect x="0.5" y="0.5" width="245" height="46" rx="9.5" fill="none"/>
            </g>
          </g>
          <text id="Email" transform="translate(7.836 31.793)" fill="rgba(0,0,0,0.26)" font-size="22" font-family="Roboto-Regular, Roboto"><tspan x="0" y="0">Email</tspan></text>
        </g>
      </g>
      <g id="Group_1511" data-name="Group 1511" transform="translate(6984.474 1773.914)">
        <text id="Stay_logged_in_" data-name="Stay logged in?" transform="translate(-0.475 17.086)" fill="rgba(0,0,0,0.26)" font-size="16" font-family="Roboto-Regular, Roboto"><tspan x="0" y="0">Stay logged in?</tspan></text>
        <rect id="Rectangle_48" data-name="Rectangle 48" width="22" height="22" transform="translate(117.526 0.086)" fill="#e1e1e1"/>
      </g>
    </g>
    <g id="Group_1506" data-name="Group 1506" transform="translate(6374 1250)">
      <g transform="matrix(1, 0, 0, 1, -9, -6)" filter="url(#Path_4444-2)">
        <path id="Path_4444-4" data-name="Path 4444" d="M25,0H350a25,25,0,0,1,25,25V787a25,25,0,0,1-25,25H25A25,25,0,0,1,0,787V25A25,25,0,0,1,25,0Z" transform="translate(9 6)" fill="#fff"/>
      </g>
      <g id="Group_1505" data-name="Group 1505">
        <text id="Login" transform="translate(144 351)" font-size="35" font-family="Roboto-Regular, Roboto"><tspan x="0" y="0">Login</tspan></text>
        <g id="Group_1499-2" data-name="Group 1499" transform="translate(-2 -22)">
          <g transform="matrix(1, 0, 0, 1, -7, 16)" filter="url(#Rectangle_47-6)">
            <g id="Rectangle_47-14" data-name="Rectangle 47" transform="translate(61 375)" fill="#fefbfb" stroke="rgba(112,112,112,0.15)" stroke-width="1">
              <rect width="272" height="52" rx="10" stroke="none"/>
              <rect x="0.5" y="0.5" width="271" height="51" rx="9.5" fill="none"/>
            </g>
          </g>
          <text id="Username-2" data-name="Username" transform="translate(63 427)" fill="rgba(0,0,0,0.26)" font-size="25" font-family="Roboto-Regular, Roboto"><tspan x="0" y="0">Username</tspan></text>
        </g>
        <g id="Group_1502-2" data-name="Group 1502" transform="translate(281 -1031)">
          <g id="Group_1500-2" data-name="Group 1500" transform="translate(-134.222 1168)">
            <path id="Path_9-2" data-name="Path 9" d="M132.988,65.231c3.74-12.4,9.625-15.2,22.869-20.453,8.989-3.276,21.837-6.568,27.454-14.865,2.928-4.328,3.52-9.229,2.78-14.2A39.09,39.09,0,0,0,167.422,11c-7.324,0-15.441.908-21.8,4.96a38.743,38.743,0,0,0-6.22,5.2c-7.332,7.252-10.1,17.5-10.1,26.942,0,4.764.116,10.025,1.824,14.637.356.952,1.44,1.564,1.864,2.5" transform="translate(-126.304 -6.616)" fill="#575757" fill-rule="evenodd"/>
            <path id="Path_10-2" data-name="Path 10" d="M130.555,60.046C119.854,21.875,160,3.67,179.206,11c-7,16.529-34.026,13.221-38.678,27.55,7.34-12.273,32.914-8.045,41.027-24.974,6.436,29.726-43.723,18.973-51,46.471" transform="translate(-125.986 -5.659)" fill="#00fddc" fill-rule="evenodd"/>
            <path id="Path_11-2" data-name="Path 11" d="M230.945,65.359c-2.8-10.209-7.673-15.357-22.889-20.581C199.067,41.5,186.219,38.2,180.6,29.913c-2.944-4.352-3.528-9.281-2.772-14.285A39.17,39.17,0,0,1,196.359,11c9.9,0,20.645,2.7,28.154,10.125,7.332,7.252,9.965,17.537,9.965,26.978.632,6.128,2.62,14.4-3.532,17.265" transform="translate(-155.24 -6.616)" fill="#575757" fill-rule="evenodd"/>
            <path id="Path_12-2" data-name="Path 12" d="M238.951,60.052c10.7-38.166-29.442-56.372-48.647-49.043,7,16.529,34.222,4.612,38.526,22.917C225.558,20,196.068,30.514,187.956,13.585c-6.44,29.722,43.723,18.969,51,46.467" transform="translate(-161.154 -5.665)" fill="#00fddc" fill-rule="evenodd"/>
            <path id="Path_13-2" data-name="Path 13" d="M207.365,43.4a61.6,61.6,0,0,1-11.677-5.2,24.153,24.153,0,0,1-2.644-1.868A14.35,14.35,0,0,1,187.5,26.64a14.858,14.858,0,0,0,2.548,10.8A15.6,15.6,0,0,0,191.74,39.4c2.68,2.644,6.4,4.6,10.593,6.316,1.684.688,3.44,1.34,5.236,1.98,12.5,4.452,26.942,8.441,31.086,21.641a40.6,40.6,0,0,0,1.7-9.969,48.549,48.549,0,0,1-1.4,6.736c-3.272-12.369-15.221-17-26.8-21.053-1.6-.564-3.2-1.116-4.8-1.68" transform="translate(-161.15 -16)" fill="#00fddc" fill-rule="evenodd"/>
            <path id="Path_14-2" data-name="Path 14" d="M220.964,16.484c.4.164.8.34,1.2.516a44.042,44.042,0,0,1,4.128,2.108c9.269,5.34,17.009,14.169,19.013,26.158a35.954,35.954,0,0,0-5.64-16.365A40.831,40.831,0,0,0,226.1,16.624a46.9,46.9,0,0,0-6.184-2.936c-.312-.1-.624-.2-.94-.3a39.491,39.491,0,0,0-23.121-.036c.172.344.352.676.54,1,6-1.948,13.829-1.576,21.461.964q1.564.52,3.116,1.168" transform="translate(-166.232 -7)" fill="#9fe" fill-rule="evenodd"/>
            <path id="Path_15-2" data-name="Path 15" d="M129.49,53.814c1.6-12.757,9.6-22.1,19.245-27.658.036-.68.1-1.368.188-2.056a39.41,39.41,0,0,0-16.2,16.8,36.265,36.265,0,0,0-3.232,12.917" transform="translate(-126.418 -14.476)" fill="#9fe" fill-rule="evenodd"/>
            <path id="Path_16-2" data-name="Path 16" d="M155.512,67.692C144.651,71.6,133.958,76.4,130.89,87.978a48.759,48.759,0,0,1-1.56-8.065A40.675,40.675,0,0,0,131.118,90.8c4.052-13.377,18.581-17.385,31.15-21.861a40.805,40.805,0,0,1-3.96-2.232A24.434,24.434,0,0,1,152.8,62q-.984.348-1.924.72l.368.552a20.581,20.581,0,0,0,4.264,4.428" transform="translate(-126.322 -37.215)" fill="#00fddc" fill-rule="evenodd"/>
            <path id="Path_17-2" data-name="Path 17" d="M178,41.325c.516-.256,1.048-.508,1.6-.752a18.624,18.624,0,0,1-2.856-11.333l-.324.192a19.974,19.974,0,0,0,1.6,11.893" transform="translate(-154.417 -17.56)" fill="#00fddc" fill-rule="evenodd"/>
            <path id="Path_18-2" data-name="Path 18" d="M201.859,41.159h-2.2A36.734,36.734,0,1,1,188.9,15.186a36.734,36.734,0,0,1,10.757,25.974h4.4a41.123,41.123,0,1,0-12.045,29.086,41.121,41.121,0,0,0,12.045-29.086Z" transform="translate(-121.809 -0.041)" fill="#575757"/>
            <path id="Path_19-2" data-name="Path 19" d="M168.75,157.917a10.257,10.257,0,0,1,2.076-2.148,11.517,11.517,0,0,1,8.372-2.184,15.7,15.7,0,0,1,8.633,3.884,21.085,21.085,0,0,1,4.348,5.3l.048.08h0a9.338,9.338,0,0,0,3.124,3.492,3.144,3.144,0,0,0,2,.252c3.056-.608,5.5-4.3,5.36-7.853l.568.632a10.8,10.8,0,0,1-1.528,15.753c-4.184,3.232-10.537,3.956-15.649,3.5-5.38-.48-11.509-2.4-15.425-6.264a14.352,14.352,0,0,1-1.328-1.464c-.212-.272-.4-.556-.6-.844-.192.288-.4.572-.6.844a13.9,13.9,0,0,1-1.312,1.476c-3.916,3.848-10.045,5.784-15.425,6.264-5.112.456-11.465-.268-15.645-3.5a10.8,10.8,0,0,1-1.532-15.753l.568-.632c-.3,3.916,3.536,9.349,7.348,7.6a9.2,9.2,0,0,0,3.12-3.492h0l.048-.08a21.173,21.173,0,0,1,4.348-5.3A15.713,15.713,0,0,1,158.3,153.6a11.517,11.517,0,0,1,8.373,2.184,10.4,10.4,0,0,1,2.08,2.148" transform="translate(-127.632 -92.105)" fill="#575757"/>
            <path id="Path_20-2" data-name="Path 20" d="M244.061,166.007a11.913,11.913,0,0,0-6.548-2.968,7.7,7.7,0,0,0-5.6,1.4,6.377,6.377,0,0,0-1.668,1.928q-.108.2-.2.4c10.6-1.332,14.441,9.6,20.329,10.653-8.093.1-11.881-10.481-20.909-8.629a7.509,7.509,0,0,0,1.672,5.384,10.8,10.8,0,0,0,.964,1.084c3.872,3.8,10.4,5.252,15.825,5.292h0c3.58-.032,7.536-.756,10.217-2.828a7.78,7.78,0,0,0,.8-.72,7.685,7.685,0,0,0,1.888-3.08l.092-.308-.092.1a6.148,6.148,0,0,1-1.076.936c-2.348,1.6-4.888,2.064-7.448.712-3.58-1.9-5.112-6.656-8.245-9.373" transform="translate(-186.381 -97.791)" fill="#00fddc" fill-rule="evenodd"/>
            <path id="Path_21-2" data-name="Path 21" d="M154.355,170.339a17.349,17.349,0,0,1,3.54-4.332,11.889,11.889,0,0,1,6.544-2.968,7.693,7.693,0,0,1,5.6,1.4,6.377,6.377,0,0,1,1.668,1.928c.076.132.144.264.208.4-10.6-1.332-14.445,9.6-20.329,10.653,8.089.1,11.877-10.481,20.905-8.629a7.5,7.5,0,0,1-1.652,5.384,10.821,10.821,0,0,1-.968,1.084c-3.872,3.8-10.4,5.252-15.825,5.292h0c-3.58-.032-7.536-.756-10.217-2.828a8.207,8.207,0,0,1-.8-.72,7.729,7.729,0,0,1-1.888-3.08l-.092-.308.1.1a6.125,6.125,0,0,0,1.072.936c2.348,1.6,4.892,2.064,7.448.712a12.951,12.951,0,0,0,4.708-5.04" transform="translate(-133.353 -97.791)" fill="#00fddc" fill-rule="evenodd"/>
            <path id="Path_22-2" data-name="Path 22" d="M157.879,186.989c-.976.1-1.94.144-2.872.152h-.876a20.522,20.522,0,0,1-6.316-1.18,7.6,7.6,0,0,1-4.656-1.5l-.508-.452a7.8,7.8,0,0,0,1.32,1.756c2.564,2.608,7.28,3.564,11.037,3.548.332,0,.664,0,1-.02a32.558,32.558,0,0,0,3.568-.34q.6-.09,1.2-.2c3.8-.728,7.508-2.212,10.069-4.728a7.975,7.975,0,0,0,2.632-6.48l-.112-.02a8.8,8.8,0,0,1-2.52,4.34c-2.932,2.88-7.372,4.4-11.721,5-.4.056-.824.1-1.232.144" transform="translate(-134.313 -106.524)" fill="#00fddc" fill-rule="evenodd"/>
            <path id="Path_23-2" data-name="Path 23" d="M232.106,183.956c2.56,2.516,6.276,4,10.069,4.728q.6.114,1.2.2a32.544,32.544,0,0,0,3.572.34c.336,0,.668.02,1,.02,3.76,0,8.473-.94,11.037-3.548a7.683,7.683,0,0,0,1.32-1.756l-.508.452a7.6,7.6,0,0,1-4.656,1.5,20.5,20.5,0,0,1-6.312,1.18h-.88c-.932,0-1.892-.056-2.868-.152q-.62-.06-1.236-.144c-4.344-.592-8.8-2.12-11.721-5a8.8,8.8,0,0,1-2.52-4.34l-.112.02a7.97,7.97,0,0,0,2.632,6.48" transform="translate(-186.391 -106.476)" fill="#00fddc" fill-rule="evenodd"/>
            <path id="Path_24-2" data-name="Path 24" d="M244.151,183.643c-4.4-2.94-8.145-7.672-14.4-6.456.044.2.1.4.156.6,5.964-1.072,9.629,3.3,13.841,6.224a9.415,9.415,0,0,0,6.8,1.828,9.413,9.413,0,0,1-3.892-.8c-.324-.136-.644-.292-.96-.456a17.3,17.3,0,0,1-1.56-.936" transform="translate(-186.571 -106.206)" fill="#00fddc" fill-rule="evenodd"/>
            <path id="Path_25-2" data-name="Path 25" d="M186.7,170.939c-6.584-.34-10.453,4.168-14,7.472-1.516,1.536-3.576,3.032-5.268,3.276,1.784-.62,3.364-2.332,4.828-3.7,4.128-3.736,8.5-8.721,14.721-7.793l.4.18c.056.088.112.176.16.268s.144.264.208.4c-.36-.048-.712-.076-1.056-.092Z" transform="translate(-149.181 -102.059)" fill="#00fddc" fill-rule="evenodd"/>
            <path id="Path_26-2" data-name="Path 26" d="M173.846,183.643c4.4-2.94,8.149-7.672,14.4-6.456-.044.2-.1.4-.156.6-5.96-1.072-9.629,3.3-13.841,6.224a9.41,9.41,0,0,1-6.8,1.828,9.4,9.4,0,0,0,3.888-.8c.328-.136.648-.292.964-.456a17.245,17.245,0,0,0,1.556-.936" transform="translate(-149.193 -106.206)" fill="#00fddc" fill-rule="evenodd"/>
            <path id="Path_27-2" data-name="Path 27" d="M164.41,164.107c5.076-.568,7.388,2.484,7.488,2.684-1.36-2.86-4.4-4.076-7.488-3.728-4.448.5-7.9,3.556-10.085,7.3a20.858,20.858,0,0,1-1.292,1.952c-.208.276-.424.548-.652.8a10.5,10.5,0,0,1-2.176,1.936c-.192.12-.4.236-.588.344-2.556,1.352-5.1.892-7.448-.712L141,173.644a8.285,8.285,0,0,0,.66,1.632l.508.452c2.348,1.6,4.892,2.064,7.448.712a7.968,7.968,0,0,0,1.152-.744,11.86,11.86,0,0,0,2.056-2.072c.216-.276.424-.56.624-.844.24-.352.472-.708.688-1.068h0l.184-.312c2.184-3.748,5.636-6.8,10.085-7.3" transform="translate(-133.323 -97.815)" fill="#00fddc" fill-rule="evenodd"/>
            <path id="Path_28-2" data-name="Path 28" d="M232.034,170.939c6.58-.34,10.449,4.168,14,7.472,1.516,1.536,3.576,3.032,5.272,3.276-1.788-.62-3.368-2.332-4.828-3.7-4.128-3.736-8.5-8.721-14.725-7.793l-.4.18c-.056.088-.108.176-.16.268s-.14.264-.2.4c.36-.048.708-.076,1.056-.092Z" transform="translate(-187.315 -102.059)" fill="#00fddc" fill-rule="evenodd"/>
            <path id="Path_29-2" data-name="Path 29" d="M238.468,164.107c-5.068-.568-7.388,2.5-7.468,2.684,1.356-2.86,4.4-4.076,7.484-3.728,4.448.5,7.9,3.556,10.089,7.3a20.044,20.044,0,0,0,1.288,1.952c.208.276.428.548.652.8a10.6,10.6,0,0,0,2.176,1.936c.192.12.4.236.588.344,2.56,1.352,5.1.892,7.448-.712l1.168-1.04a8.287,8.287,0,0,1-.66,1.632l-.508.452c-2.348,1.6-4.888,2.064-7.448.712a7.967,7.967,0,0,1-1.152-.744,11.706,11.706,0,0,1-2.052-2.072c-.22-.276-.428-.56-.624-.844-.244-.352-.472-.708-.688-1.068h0l-.18-.312c-2.188-3.748-5.64-6.8-10.089-7.3" transform="translate(-187.321 -97.815)" fill="#00fddc" fill-rule="evenodd"/>
            <path id="Path_30-2" data-name="Path 30" d="M222.543,119.332a4.1,4.1,0,1,1-4.092-4.092,4.1,4.1,0,0,1,4.092,4.092Z" transform="translate(-177.331 -69.157)" fill="#575757"/>
            <path id="Path_31-2" data-name="Path 31" d="M223.561,110.194l11.6-9.6a1.2,1.2,0,1,0-1.532-1.848l-11.6,9.6a1.2,1.2,0,1,0,1.532,1.848" transform="translate(-181.678 -59.096)" fill="#575757"/>
            <path id="Path_32-2" data-name="Path 32" d="M221.6,98.41v10.1a1.2,1.2,0,0,0,2.4,0V98.41a1.2,1.2,0,0,0-2.4,0" transform="translate(-181.681 -58.34)" fill="#575757"/>
          </g>
          <g id="Group_1493-2" data-name="Group 1493" transform="translate(-248 1262.597)">
            <path id="Path_1-2" data-name="Path 1" d="M4.258,242.358a4.33,4.33,0,0,1-3.038-1.117A3.764,3.764,0,0,1,0,238.28a3.68,3.68,0,0,1,1.222-2.9A4.435,4.435,0,0,1,4.258,234.3H35.265a4.365,4.365,0,0,1,3.038,1.117,3.785,3.785,0,0,1,1.222,2.933,3.659,3.659,0,0,1-1.222,2.9,4.4,4.4,0,0,1-3.038,1.082Zm15.434,40.854a4.407,4.407,0,0,1-3.212-1.222,4.051,4.051,0,0,1-1.257-3.038v-40.5H24.3v40.5a4.009,4.009,0,0,1-1.257,3.038,4.623,4.623,0,0,1-3.352,1.222Z" transform="translate(0.006 -232.985)" fill="#00fddc"/>
            <path id="Path_2-2" data-name="Path 2" d="M69.43,240.744a5.506,5.506,0,0,1-3.352-.768,3.264,3.264,0,0,1-.978-2.724v-1.327a3.1,3.1,0,0,1,1.082-2.759,5.971,5.971,0,0,1,3.317-.733,5.674,5.674,0,0,1,3.422.768,3.32,3.32,0,0,1,.978,2.724v1.327a3.148,3.148,0,0,1-1.048,2.759A6.132,6.132,0,0,1,69.43,240.744Zm4.26,37.642a4.19,4.19,0,0,1-1.187,3.038,4.3,4.3,0,0,1-6.006,0,4.19,4.19,0,0,1-1.187-3.038V249.543a4.19,4.19,0,0,1,1.187-3.038,4.3,4.3,0,0,1,6.006,0,4.19,4.19,0,0,1,1.187,3.038Z" transform="translate(-19.632 -232.419)" fill="#00fddc"/>
            <path id="Path_3-2" data-name="Path 3" d="M109.353,249.839q5.587,0,8.241,2.689a13.3,13.3,0,0,1,3.492,6.949l-1.187-.629.559-1.117a16.063,16.063,0,0,1,2.584-3.457,15.839,15.839,0,0,1,4.19-3.143,11.83,11.83,0,0,1,5.587-1.292q5.028,0,7.647,2.165a11.034,11.034,0,0,1,3.6,5.762,30.587,30.587,0,0,1,.978,8V283.64a4.19,4.19,0,0,1-1.187,3.038,4.3,4.3,0,0,1-6.006,0,4.19,4.19,0,0,1-1.187-3.038V265.762a14.448,14.448,0,0,0-.559-4.155,5.748,5.748,0,0,0-2.025-2.968,6.829,6.829,0,0,0-4.19-1.117,8.785,8.785,0,0,0-4.539,1.117,7.263,7.263,0,0,0-2.793,2.968,9.03,9.03,0,0,0-.943,4.155V283.64a4.19,4.19,0,0,1-1.187,3.038,4.3,4.3,0,0,1-6.006,0,4.19,4.19,0,0,1-1.187-3.038V265.762a14.449,14.449,0,0,0-.559-4.155,5.747,5.747,0,0,0-2.025-2.968,6.829,6.829,0,0,0-4.19-1.117,8.785,8.785,0,0,0-4.539,1.117,7.263,7.263,0,0,0-2.793,2.968,9.03,9.03,0,0,0-.943,4.155V283.64a4.19,4.19,0,0,1-1.187,3.038,4.3,4.3,0,0,1-6.006,0A4.19,4.19,0,0,1,89.8,283.64V254.8a4.19,4.19,0,0,1,1.187-3.038,4.3,4.3,0,0,1,6.006,0A4.19,4.19,0,0,1,98.18,254.8v3l-1.048-.21a15.588,15.588,0,0,1,1.746-2.549,14.975,14.975,0,0,1,2.724-2.549,14.548,14.548,0,0,1,3.562-1.92A12.019,12.019,0,0,1,109.353,249.839Z" transform="translate(-27.082 -237.673)" fill="#00fddc"/>
            <path id="Path_4-2" data-name="Path 4" d="M198.241,288.6a20.469,20.469,0,0,1-10.3-2.479,17.047,17.047,0,0,1-6.7-6.739,19.61,19.61,0,0,1-2.34-9.637,21.14,21.14,0,0,1,2.549-10.713,18.01,18.01,0,0,1,6.669-6.809,17.256,17.256,0,0,1,8.729-2.374,15.909,15.909,0,0,1,6.739,1.467,18.549,18.549,0,0,1,5.622,4.016,19.666,19.666,0,0,1,3.876,5.9,18.025,18.025,0,0,1,1.432,7.123,3.6,3.6,0,0,1-1.327,2.724,4.442,4.442,0,0,1-2.933,1.048H183.575l-2.1-6.984h25.63l-1.536,1.4v-1.92a6.439,6.439,0,0,0-1.4-3.632,9.442,9.442,0,0,0-3.212-2.549,9.176,9.176,0,0,0-4.085-.943,13.268,13.268,0,0,0-3.911.559,7.528,7.528,0,0,0-3.143,1.886,9.128,9.128,0,0,0-2.1,3.562,17.563,17.563,0,0,0-.768,5.657,12.207,12.207,0,0,0,1.571,6.39,10.741,10.741,0,0,0,9.288,5.37,16.274,16.274,0,0,0,4.12-.419,9.245,9.245,0,0,0,2.479-1.013c.629-.391,1.194-.733,1.711-1.013a5.321,5.321,0,0,1,2.374-.629,3.492,3.492,0,0,1,3.562,3.492,4.365,4.365,0,0,1-1.955,3.422,16.23,16.23,0,0,1-5.1,2.689A20.338,20.338,0,0,1,198.241,288.6Z" transform="translate(-53.955 -237.676)" fill="#00fddc"/>
            <path id="Path_5-2" data-name="Path 5" d="M263.486,283.624a26.412,26.412,0,0,1-9.987-1.851,23.5,23.5,0,0,1-13.2-13.234,28.249,28.249,0,0,1,0-20.113A23.5,23.5,0,0,1,253.5,235.2a26.538,26.538,0,0,1,10.021-1.851,28.836,28.836,0,0,1,7.4.943,20.777,20.777,0,0,1,6.355,2.828,1.208,1.208,0,0,1,.489.524,1.662,1.662,0,0,1,.14.663,1.208,1.208,0,0,1-.489,1.048,1.515,1.515,0,0,1-.838.349,1.076,1.076,0,0,1-.489-.1,3.55,3.55,0,0,0-.419-.175,27.021,27.021,0,0,0-5.657-2.374,23.045,23.045,0,0,0-6.495-.908,22.5,22.5,0,0,0-11.488,2.9,20.8,20.8,0,0,0-7.822,7.926,24.96,24.96,0,0,0,0,23.046,20.414,20.414,0,0,0,7.822,7.926,22.621,22.621,0,0,0,11.488,2.863,22.349,22.349,0,0,0,6.879-1.083,23.147,23.147,0,0,0,5.971-2.828l-.279,1.257V260.69l.978.908H263.486a1.432,1.432,0,0,1-1.4-1.4,1.313,1.313,0,0,1,.419-1.013,1.4,1.4,0,0,1,.978-.384h13.967a1.313,1.313,0,0,1,1.013.419,1.4,1.4,0,0,1,.384.978V277.73a1.745,1.745,0,0,1-.14.628,1.543,1.543,0,0,1-.489.629,27.488,27.488,0,0,1-6.879,3.352,24.932,24.932,0,0,1-7.857,1.285Z" transform="translate(-71.921 -232.699)" fill="#00fddc"/>
            <path id="Path_6-2" data-name="Path 6" d="M337.428,254.439a1.313,1.313,0,0,1,1.013.419,1.4,1.4,0,0,1,.384.978v20.322q0,6.774-3.806,10.161t-10.091,3.387q-6.222,0-10.022-3.387T311.1,276.159V255.836a1.432,1.432,0,0,1,1.4-1.4,1.313,1.313,0,0,1,1.013.419,1.4,1.4,0,0,1,.384.978v20.322q0,5.307,2.968,8.1a11.294,11.294,0,0,0,8.066,2.793q5.161,0,8.136-2.793t2.968-8.1V255.836a1.4,1.4,0,0,1,.384-.978A1.3,1.3,0,0,1,337.428,254.439Z" transform="translate(-93.836 -239.061)" fill="#00fddc"/>
            <path id="Path_7-2" data-name="Path 7" d="M368.787,288.793a1.313,1.313,0,0,1-1.013-.419,1.4,1.4,0,0,1-.384-.978V255.341a1.432,1.432,0,0,1,1.4-1.4,1.3,1.3,0,0,1,1.013.419,1.4,1.4,0,0,1,.384.978v11.8L369,268.959a17.188,17.188,0,0,1,.915-5.545,18.472,18.472,0,0,1,2.759-5.2A14.666,14.666,0,0,1,377.1,254.3a11.963,11.963,0,0,1,6.041-1.5,8.833,8.833,0,0,1,2.1.279,1.285,1.285,0,0,1,1.117,1.327,1.557,1.557,0,0,1-.349,1.048,1.117,1.117,0,0,1-.908.419,2.269,2.269,0,0,1-1.013-.314,3.715,3.715,0,0,0-1.711-.314,8.381,8.381,0,0,0-4.4,1.327,15.666,15.666,0,0,0-3.946,3.527,18.858,18.858,0,0,0-2.828,4.784,13.359,13.359,0,0,0-1.048,5.028v17.459a1.432,1.432,0,0,1-1.4,1.4Z" transform="translate(-110.815 -238.565)" fill="#00fddc"/>
            <path id="Path_8-2" data-name="Path 8" d="M430.521,254.439a1.3,1.3,0,0,1,1.013.419,1.4,1.4,0,0,1,.384.978v20.322q0,6.774-3.806,10.161t-10.084,3.387q-6.208,0-10.021-3.387T404.2,276.159V255.836a1.432,1.432,0,0,1,1.4-1.4,1.3,1.3,0,0,1,1.013.419,1.4,1.4,0,0,1,.384.978v20.322q0,5.308,2.968,8.1a11.294,11.294,0,0,0,8.066,2.793q5.175,0,8.136-2.793t2.968-8.1V255.836a1.4,1.4,0,0,1,.384-.978A1.313,1.313,0,0,1,430.521,254.439Z" transform="translate(-121.918 -239.061)" fill="#00fddc"/>
          </g>
        </g>
        <path id="iconfinder_menu-alt_134216-2" data-name="iconfinder_menu-alt_134216" d="M5.857,13.714H52.143a3.857,3.857,0,0,0,0-7.714H5.857a3.857,3.857,0,0,0,0,7.714Zm46.286,7.714H5.857a3.857,3.857,0,0,0,0,7.714H52.143a3.857,3.857,0,0,0,0-7.714Zm0,15.429H5.857a3.857,3.857,0,1,0,0,7.714H52.143a3.857,3.857,0,1,0,0-7.714Z" transform="translate(298 9)" fill="#575757"/>
        <g id="Group_1503-2" data-name="Group 1503" transform="translate(-2 50)">
          <g transform="matrix(1, 0, 0, 1, -7, -56)" filter="url(#Rectangle_47-7)">
            <g id="Rectangle_47-15" data-name="Rectangle 47" transform="translate(61 447)" fill="#fefbfb" stroke="rgba(112,112,112,0.15)" stroke-width="1">
              <rect width="272" height="52" rx="10" stroke="none"/>
              <rect x="0.5" y="0.5" width="271" height="51" rx="9.5" fill="none"/>
            </g>
          </g>
          <text id="Password-2" data-name="Password" transform="translate(63 427)" fill="rgba(0,0,0,0.26)" font-size="25" font-family="Roboto-Regular, Roboto"><tspan x="0" y="0">Password</tspan></text>
        </g>
        <text id="Forgot_your_password_Click_here_" data-name="Forgot your password? Click here!" transform="translate(52 532)" fill="rgba(0,0,0,0.26)" font-size="18" font-family="Roboto-Regular, Roboto"><tspan x="0" y="0">Forgot your password? Click here!</tspan></text>
        <g id="Group_1504-2" data-name="Group 1504" transform="translate(43 177)">
          <g transform="matrix(1, 0, 0, 1, -52, -183)" filter="url(#Rectangle_47-8)">
            <g id="Rectangle_47-16" data-name="Rectangle 47" transform="translate(106 574)" fill="#575757" stroke="rgba(112,112,112,0.15)" stroke-width="1">
              <rect width="182" height="52" rx="10" stroke="none"/>
              <rect x="0.5" y="0.5" width="181" height="51" rx="9.5" fill="none"/>
            </g>
          </g>
          <text id="Login-2" data-name="Login" transform="translate(114 427)" fill="#fff" font-size="25" font-family="Roboto-Regular, Roboto"><tspan x="0" y="0">Login</tspan></text>
        </g>
        <text id="_Copyright_2021_Lovast_LLC.-2" data-name="© Copyright 2021 — Lovast, LLC." transform="translate(57 797)" fill="#575757" font-size="18" font-family="Roboto-Regular, Roboto"><tspan x="0" y="0">© Copyright 2021 — Lovast, LLC.</tspan></text>
      </g>
    </g>
  </g>
</svg>
